Coordinates
version=1
nRows=14
nColumns=24
inDegrees=yes

Units are S.I. units (second, meters, Newtons, ...)
Angles are in degrees.

endheader
time	pelvis_tilt	pelvis_list	pelvis_rotation	pelvis_tx	pelvis_ty	pelvis_tz	hip_flexion_r	hip_adduction_r	hip_rotation_r	knee_angle_r	ankle_angle_r	subtalar_angle_r	mtp_angle_r	hip_flexion_l	hip_adduction_l	hip_rotation_l	knee_angle_l	ankle_angle_l	subtalar_angle_l	mtp_angle_l	lumbar_extension	lumbar_bending	lumbar_rotation
      1.04400000	     -2.47118546	     -2.05454410	     -2.89981404	     -0.14764507	      0.96974540	      0.32418862	    -10.74610414	      5.14326977	     -6.27242231	    -11.72882320	     15.69400352	      4.55783087	      4.91757573	     24.82859395	     -0.64822176	     -5.64346234	      1.57486851	     -1.09799335	     -2.33891370	     -1.09106720	     -0.80292692	      5.72712710	      6.92850121
      1.04816667	     -2.49502961	     -1.96335117	     -2.95634391	     -0.14179152	      0.96914415	      0.32397881	    -10.81965197	      4.98068460	     -6.22830202	    -12.23092510	     15.63636036	      4.46466118	      4.93852900	     24.81542318	     -0.51429138	     -5.71748447	      1.50097506	     -1.23985777	     -2.49146344	     -1.06171811	     -0.73870067	      5.64089985	      6.94019674
      1.05233333	     -2.56278419	     -1.86572514	     -2.99626575	     -0.13596662	      0.96852227	      0.32375501	    -10.81488552	      4.81957195	     -6.15958218	    -12.79864553	     15.70121527	      4.36584619	      5.02875609	     24.84510668	     -0.37069889	     -5.62529112	      1.38075220	     -1.55982254	     -2.92902815	     -0.93558325	     -0.63419241	      5.50923813	      7.02199068
      1.05650000	     -2.61689924	     -1.74781848	     -3.02521448	     -0.13007856	      0.96798389	      0.32352532	    -10.82615372	      4.63998941	     -6.09339876	    -13.35428809	     15.63710687	      4.20651997	      5.12438459	     24.88331432	     -0.20822641	     -5.58970799	      1.14503814	     -1.85448135	     -3.29576762	     -0.79120306	     -0.53169413	      5.35846301	      7.02537753
      1.06066667	     -2.67567980	     -1.61547049	     -3.04354267	     -0.12416383	      0.96749300	      0.32328277	    -10.81507467	      4.44878316	     -6.01972330	    -13.94157149	     15.55270431	      4.01183328	      5.22168834	     24.94252118	     -0.03209727	     -5.54494947	      0.81855748	     -2.17210029	     -3.68388919	     -0.64671443	     -0.42043245	      5.19403935	      7.02499519
      1.06483333	     -2.73543253	     -1.48390617	     -3.04978146	     -0.11823041	      0.96705081	      0.32302771	    -10.78525446	      4.26206407	     -5.94516414	    -14.55981750	     15.43193622	      3.78664049	      5.33472894	     25.01156123	      0.14482546	     -5.46187191	      0.42494803	     -2.52251909	     -4.14054502	     -0.48287869	     -0.30050631	      5.02125190	      7.01217710
      1.06900000	     -2.74942249	     -1.33917892	     -3.02702017	     -0.11224401	      0.96672968	      0.32273549	    -10.80455326	      4.06625033	     -5.88314097	    -15.16959083	     15.18653490	      3.46702681	      5.87895457	     25.01221631	      0.34929877	     -5.27362097	      0.02657710	     -2.95131864	     -4.74627910	      0.26909659	     -0.24097979	      4.83215166	      6.99395804
      1.07316667	     -2.86082986	     -1.18698575	     -3.02623838	     -0.10628378	      0.96631542	      0.32246193	    -10.66079110	      3.85843748	     -5.80983014	    -15.89421962	     15.06935885	      3.27309638	      5.97299321	     25.19143265	      0.53668573	     -5.26547126	     -0.56205872	     -3.29454614	     -5.10242375	      0.37994368	     -0.05402920	      4.64433718	      6.95297207
      1.07733333	     -2.94002147	     -1.03840582	     -3.00017003	     -0.10029620	      0.96600228	      0.32215781	    -10.53939451	      3.65964314	     -5.74470181	    -16.63397488	     14.83625348	      2.98478500	      6.10289250	     25.31038569	      0.73470111	     -5.12111368	     -1.12997272	     -3.71899539	     -5.65434467	      0.51894267	      0.09687714	      4.44878162	      6.91313369
      1.08150000	     -3.01206610	     -0.88100974	     -2.96155348	     -0.09428031	      0.96575002	      0.32183146	    -10.40525088	      3.45360050	     -5.68021871	    -17.40612359	     14.55593984	      2.67061980	      6.26723604	     25.42434822	      0.94592291	     -4.95848544	     -1.73262310	     -4.15640279	     -6.21605942	      0.67348997	      0.23704688	      4.24823779	      6.86243813
      1.08566667	     -3.08494772	     -0.71661220	     -2.91179170	     -0.08824471	      0.96554757	      0.32148900	    -10.24365529	      3.24088107	     -5.62367256	    -18.22220358	     14.22640482	      2.34952672	      6.44784015	     25.54692918	      1.16607204	     -4.79897508	     -2.37326568	     -4.59483614	     -6.74842009	      0.81956397	      0.38492078	      4.03300723	      6.80168762
      1.08983333	     -3.16243451	     -0.55049305	     -2.85368335	     -0.08219879	      0.96538808	      0.32112164	    -10.04537337	      3.02534167	     -5.57470682	    -19.08926400	     13.84350374	      2.01462170	      6.66743702	     25.67538858	      1.39169700	     -4.61637965	     -3.03645403	     -5.03727108	     -7.29870113	      0.97069617	      0.53747828	      3.82037372	      6.73384740
      1.09400000	     -3.20090268	     -0.36580631	     -2.76958393	     -0.07609738	      0.96532276	      0.32070877	     -9.87188935	      2.78197890	     -5.59151883	    -19.96888533	     13.27772070	      1.66502273	     10.58706015	     25.75466415	      1.64855608	     -4.41679443	     -3.70041872	     -5.49726558	     -7.87451652	      3.22237564	      0.65248882	      3.57527196	      6.65931159
      1.09816667	     -3.29316399	     -0.19020856	     -2.71002773	     -0.07004614	      0.96523829	      0.32032693	     -9.58286335	      2.55313979	     -5.53337582	    -20.96034841	     12.83874094	      1.30781064	     10.63486648	     25.90809117	      1.87927186	     -4.27257804	     -4.41246478	     -5.91255611	     -8.32201117	      3.20958643	      0.82278798	      3.34814221	      6.58131435
